<svg id="admin_icon" xmlns="http://www.w3.org/2000/svg" viewBox="0 0 85.7 85.64"><defs><style>.cls-1{fill:#fff;}</style></defs><title>admin-icon</title><path class="cls-1" d="M90.23,94.17H78c0-.25,0-.48,0-.7,0-13.34-.08-26.68,0-40a41.18,41.18,0,0,0-.81-9.79,28.21,28.21,0,0,0-9.72-15.32c-4.42-3.72-9.35-6.41-15.15-7.2C41,19.61,31.44,22.7,24.1,31.69a34.39,34.39,0,0,0-5.33,8.58,27.67,27.67,0,0,0-1.59,6.23,30.49,30.49,0,0,0,2.47,18.36,28.27,28.27,0,0,0,9.06,10.7,51.26,51.26,0,0,0,6.42,4,24,24,0,0,0,7.64,2.17c7,1,13.49-.73,19.49-4.39,1.46-.9,2.9-1.82,4.36-2.72l.45-.25c0,.81,0,1.54,0,2.27,0,3.73-.07,7.46-.07,11.19A1.11,1.11,0,0,1,66.33,89a44.06,44.06,0,0,1-16.77,5A37.69,37.69,0,0,1,27,89.18,50.44,50.44,0,0,1,12.82,76.54C8.52,71.23,6.4,65,5.22,58.46A41.93,41.93,0,0,1,6.24,39a40.57,40.57,0,0,1,12.5-19.09,55.08,55.08,0,0,1,8.21-6A38.22,38.22,0,0,1,37.6,9.79a41.82,41.82,0,0,1,24.91,1.42,39.91,39.91,0,0,1,13.61,8.67,53,53,0,0,1,9.55,12.21,33.5,33.5,0,0,1,3,8.33,46.55,46.55,0,0,1,1.5,11.74q0,18.06,0,36.13Z" transform="translate(-4.53 -8.53)"/></svg>
