<?xml version="1.0" encoding="utf-8"?>
<!-- Generator: Adobe Illustrator 22.0.1, SVG Export Plug-In . SVG Version: 6.00 Build 0)  -->
<svg version="1.1" id="Layer_1" xmlns="http://www.w3.org/2000/svg" xmlns:xlink="http://www.w3.org/1999/xlink" x="0px" y="0px"
	 viewBox="0 0 156.9 65.7" style="enable-background:new 0 0 156.9 65.7;" xml:space="preserve">
<style type="text/css">
	.st0{fill:#2E2D2E;}
</style>
<g>
	<g>
		<path class="st0" d="M50.3,65.7c-2.5,0-4.8,0-7.2,0c0-0.1,0-0.3,0-0.4c0-7.8,0-15.7,0-23.5c0-1.9,0-3.9-0.5-5.7
			c-0.9-3.6-2.9-6.6-5.7-9c-2.6-2.2-5.5-3.8-8.9-4.2c-6.6-0.9-12.2,0.9-16.5,6.2c-1.3,1.5-2.4,3.2-3.1,5c-0.5,1.2-0.7,2.4-0.9,3.7
			c-0.6,3.7-0.2,7.3,1.4,10.8c1.2,2.6,3,4.6,5.3,6.3c1.2,0.9,2.5,1.7,3.8,2.3c1.4,0.7,2.9,1,4.5,1.3c4.1,0.6,7.9-0.4,11.4-2.6
			c0.9-0.5,1.7-1.1,2.6-1.6c0.1,0,0.2-0.1,0.3-0.1c0,0.5,0,0.9,0,1.3c0,2.2,0,4.4,0,6.6c0,0.3-0.1,0.5-0.4,0.7
			c-3.1,1.6-6.4,2.6-9.8,2.9c-4.7,0.4-9.1-0.5-13.3-2.8c-3.3-1.9-5.9-4.5-8.3-7.4c-2.5-3.1-3.8-6.8-4.5-10.6
			c-0.7-3.8-0.5-7.7,0.6-11.4c1.3-4.5,3.9-8.1,7.3-11.2c1.5-1.3,3.1-2.5,4.8-3.5c1.9-1.2,4.1-1.9,6.2-2.4c5-1.2,9.8-0.9,14.6,0.8
			c3,1.1,5.7,2.9,8,5.1c2.2,2.1,4.1,4.5,5.6,7.2c0.9,1.5,1.3,3.2,1.8,4.9c0.6,2.3,0.9,4.6,0.9,6.9c0,7.1,0,14.1,0,21.2
			C50.3,63.4,50.3,64.5,50.3,65.7z"/>
		<path class="st0" d="M86.1,65.7c-2.4,0-4.7,0-7.1,0c0-21.9,0-43.8,0-65.7c2.3,0,4.7,0,7.1,0C86.1,21.9,86.1,43.8,86.1,65.7z"/>
		<path class="st0" d="M61.4,17.1c2.4,0,4.7,0,7,0c0,16.2,0,32.4,0,48.6c-2.4,0-4.7,0-7,0C61.4,49.5,61.4,33.3,61.4,17.1z"/>
		<path class="st0" d="M68.9,1.5c0-0.8-0.6-1.4-1.4-1.5C65.9,0,64.3,0,62.6,0c-0.9,0-1.4,0.7-1.4,1.6c0,1.5,0,3,0,4.4
			c0,1,0.7,1.6,1.6,1.6l4.6,0c0.9,0,1.5-0.6,1.5-1.5C69,4.6,69,3,68.9,1.5z"/>
		<path class="st0" d="M147.1,65.7c-2.5,0-4.8,0-7.2,0c0-0.1,0-0.3,0-0.4c0-7.8,0-15.7,0-23.5c0-1.9,0-3.9-0.5-5.7
			c-0.9-3.6-2.9-6.6-5.7-9c-2.6-2.2-5.5-3.8-8.9-4.2c-6.6-0.9-12.2,0.9-16.5,6.2c-1.3,1.5-2.4,3.2-3.1,5c-0.5,1.2-0.7,2.4-0.9,3.7
			c-0.6,3.7-0.2,7.3,1.4,10.8c1.2,2.6,3,4.6,5.3,6.3c1.2,0.9,2.5,1.7,3.8,2.3c1.4,0.7,2.9,1,4.5,1.3c4.1,0.6,7.9-0.4,11.4-2.6
			c0.9-0.5,1.7-1.1,2.6-1.6c0.1,0,0.2-0.1,0.3-0.1c0,0.5,0,0.9,0,1.3c0,2.2,0,4.4,0,6.6c0,0.3-0.1,0.5-0.4,0.7
			c-3.1,1.6-6.4,2.6-9.8,2.9c-4.7,0.4-9.1-0.5-13.3-2.8c-3.3-1.9-5.9-4.5-8.3-7.4c-2.5-3.1-3.8-6.8-4.5-10.6
			c-0.7-3.8-0.5-7.7,0.6-11.4c1.3-4.5,3.9-8.1,7.3-11.2c1.5-1.3,3.1-2.5,4.8-3.5c1.9-1.2,4.1-1.9,6.2-2.4c5-1.2,9.8-0.9,14.6,0.8
			c3,1.1,5.7,2.9,8,5.1c2.2,2.1,4.1,4.5,5.6,7.2c0.9,1.5,1.3,3.2,1.8,4.9c0.6,2.3,0.9,4.6,0.9,6.9c0,7.1,0,14.1,0,21.2
			C147.1,63.4,147.1,64.5,147.1,65.7z"/>
	</g>
	<g>
		<path class="st0" d="M151.6,65.7h-0.4v-3.2h-1.1v-0.4h2.7v0.4h-1.1L151.6,65.7L151.6,65.7z"/>
		<path class="st0" d="M154.9,65.7l-1.2-3.2h0c0,0.3,0,0.5,0,0.9v2.3h-0.4v-3.6h0.6l1.1,2.9h0l1.1-2.9h0.6v3.6h-0.4v-2.3
			c0-0.3,0-0.6,0-0.9h0l-1.2,3.2L154.9,65.7L154.9,65.7z"/>
	</g>
</g>
</svg>
